<svg width="88" height="103" viewBox="0 0 88 103" fill="none" xmlns="http://www.w3.org/2000/svg">
<path d="M87.2621 59.4446C87.2621 84.2032 69.1786 102.772 44.9054 102.772C19.7827 102.772 0 83.475 0 58.9591C0 34.4432 19.6613 15.146 44.6627 15.146V30.074C28.7637 30.074 16.7485 42.5747 16.7485 58.9591C16.7485 75.4649 29.0065 87.9656 45.1481 87.9656C57.8916 87.9656 67.9649 79.8341 69.9068 68.4257H44.0558V54.2258H87.2621V59.4446Z" fill="white"/>
<g filter="url(#filter0_ii_footer_g)">
<path d="M68.3109 26.2939C62.364 19.1333 53.8683 15.1282 44.6445 15.1282V0.200195C58.6016 0.200195 71.4664 6.02576 79.7193 15.735L68.3109 26.2939Z" fill="white"/>
<path d="M68.3109 26.2939C62.364 19.1333 53.8683 15.1282 44.6445 15.1282V0.200195C58.6016 0.200195 71.4664 6.02576 79.7193 15.735L68.3109 26.2939Z" fill="url(#paint0_linear_footer_g)"/>
</g>
<path d="M44.6445 0.100586C58.6289 0.100586 71.5227 5.93675 79.7959 15.6699L79.8574 15.7432L79.7871 15.8086L68.3789 26.3672L68.3018 26.4385L68.2344 26.3574C62.3063 19.2195 53.8383 15.2285 44.6445 15.2285H44.5449V0.100586H44.6445Z" stroke="url(#paint1_linear_footer_g)" stroke-width="0.2"/>
<defs>
<filter id="filter0_ii_footer_g" x="44.4453" y="-3.82312" width="35.5508" height="34.8674" filterUnits="userSpaceOnUse" color-interpolation-filters="sRGB">
<feFlood flood-opacity="0" result="BackgroundImageFix"/>
<feBlend mode="normal" in="SourceGraphic" in2="BackgroundImageFix" result="shape"/>
<feColorMatrix in="SourceAlpha" type="matrix" values="0 0 0 0 0 0 0 0 0 0 0 0 0 0 0 0 0 0 127 0" result="hardAlpha"/>
<feOffset dy="6.37186"/>
<feGaussianBlur stdDeviation="2.23015"/>
<feComposite in2="hardAlpha" operator="arithmetic" k2="-1" k3="1"/>
<feColorMatrix type="matrix" values="0 0 0 0 1 0 0 0 0 1 0 0 0 0 1 0 0 0 0.4 0"/>
<feBlend mode="normal" in2="shape" result="effect1_innerShadow_footer_g"/>
<feColorMatrix in="SourceAlpha" type="matrix" values="0 0 0 0 0 0 0 0 0 0 0 0 0 0 0 0 0 0 127 0" result="hardAlpha"/>
<feOffset dy="-6.37186"/>
<feGaussianBlur stdDeviation="1.91156"/>
<feComposite in2="hardAlpha" operator="arithmetic" k2="-1" k3="1"/>
<feColorMatrix type="matrix" values="0 0 0 0 0.509615 0 0 0 0 0.348237 0 0 0 0 0 0 0 0 0.54 0"/>
<feBlend mode="normal" in2="effect1_innerShadow_footer_g" result="effect2_innerShadow_footer_g"/>
</filter>
<linearGradient id="paint0_linear_footer_g" x1="62.1819" y1="0.200195" x2="74.9073" y2="19.6312" gradientUnits="userSpaceOnUse">
<stop stop-color="#FEDE70"/>
<stop offset="0.254808" stop-color="#F0DE84"/>
<stop offset="0.576923" stop-color="#B47B00"/>
<stop offset="1" stop-color="#EEDC86"/>
</linearGradient>
<linearGradient id="paint1_linear_footer_g" x1="56.2259" y1="23.5664" x2="61.1082" y2="2.41225" gradientUnits="userSpaceOnUse">
<stop stop-color="#F8CF38"/>
<stop offset="0.475962" stop-color="#BA7E0E"/>
<stop offset="0.712976" stop-color="#B3750A"/>
<stop offset="1" stop-color="#F6C30E"/>
</linearGradient>
</defs>
</svg>
