<svg width="231" height="103" viewBox="173 0 231 103" fill="none" xmlns="http://www.w3.org/2000/svg">
<path d="M336.996 101.627L361.148 69.5862L337.724 38.7593H355.686L370.129 58.2992L384.572 38.7593H401.806L378.625 69.3435L403.262 101.627H385.3L369.765 80.7519L354.23 101.627H336.996Z" fill="white"/>
<path d="M308.36 102.84C289.427 102.84 274.863 88.5191 274.863 70.1928C274.863 51.9879 288.942 37.7881 306.904 37.7881C324.623 37.7881 337.852 52.1093 337.852 71.2851V75.2902H290.398C292.461 83.7858 299.743 89.8541 309.088 89.8541C314.793 89.8541 320.011 87.9122 323.41 84.6353L333.483 93.9805C325.837 100.049 318.191 102.84 308.36 102.84ZM290.277 64.2459H322.681C320.861 56.2357 314.429 50.5315 306.54 50.5315C298.408 50.5315 292.219 55.8716 290.277 64.2459Z" fill="white"/>
<path d="M230.806 102.476C212.965 102.476 199.008 88.276 199.008 70.1925C199.008 51.9876 213.086 37.9091 231.291 37.9091C237.602 37.9091 243.792 39.7296 248.889 43.2492V16.6701L264.303 14V101.626H249.011V96.1648C244.035 100.291 237.724 102.476 230.806 102.476ZM233.233 89.3683C239.544 89.3683 245.005 87.0623 248.889 82.8145V57.3277C245.127 53.3226 239.423 51.0166 233.233 51.0166C222.431 51.0166 214.057 59.2695 214.057 70.0711C214.057 80.994 222.431 89.3683 233.233 89.3683Z" fill="white"/>
<path d="M173 101.626V16.6701L188.413 14V101.626H173Z" fill="white"/>
</svg>
